<?xml version="1.0" standalone="no"?>
<!DOCTYPE svg PUBLIC "-//W3C//DTD SVG 20010904//EN"
 "http://www.w3.org/TR/2001/REC-SVG-20010904/DTD/svg10.dtd">
<svg version="1.0" xmlns="http://www.w3.org/2000/svg"
 width="320.000000pt" height="320.000000pt" viewBox="0 0 320.000000 320.000000"
 preserveAspectRatio="xMidYMid meet">

<g transform="translate(0.000000,320.000000) scale(0.100000,-0.100000)"
fill="#000000" stroke="none">
<path d="M1095 3024 c-144 -34 -209 -112 -217 -261 -6 -103 -18 -122 -176
-284 -238 -245 -296 -352 -309 -572 l-6 -109 29 4 29 3 1 100 c2 129 37 240
103 329 57 77 299 321 328 330 17 5 31 -2 64 -34 23 -22 63 -52 90 -67 45 -24
56 -43 24 -43 -10 0 -12 -9 -8 -36 5 -32 4 -36 -13 -30 -13 4 -25 -2 -39 -20
-11 -14 -66 -72 -122 -130 -57 -57 -103 -108 -103 -112 0 -4 -8 -12 -17 -18
-10 -7 -27 -29 -38 -50 -11 -22 -26 -45 -32 -52 -7 -7 -13 -18 -13 -23 0 -6
-11 2 -23 17 -44 50 -81 5 -75 -90 l3 -51 38 -3 c21 -2 44 2 51 8 17 13 127 2
141 -15 6 -6 52 -22 103 -34 50 -13 92 -25 92 -28 0 -2 -13 -2 -29 2 -19 4
-32 2 -37 -7 -4 -7 -4 -10 1 -6 4 4 14 1 22 -7 12 -13 17 -13 38 1 23 15 29
14 84 -7 33 -13 57 -28 54 -33 -3 -5 -1 -6 5 -3 15 10 43 -3 35 -16 -3 -5 -1
-7 5 -4 15 10 43 -3 35 -16 -3 -6 -1 -7 5 -3 15 9 95 -32 87 -44 -4 -6 1 -7
11 -3 11 4 15 2 11 -4 -4 -6 1 -10 11 -9 9 0 16 -5 14 -12 -1 -8 2 -11 8 -7
13 8 52 -19 42 -30 -4 -5 -1 -5 5 -1 7 4 35 -10 65 -32 73 -53 135 -92 149
-92 7 0 35 11 63 24 68 32 109 44 181 51 51 5 72 2 140 -23 154 -56 216 -112
357 -320 53 -79 67 -106 58 -117 -8 -10 -40 -12 -132 -9 -67 2 -123 6 -126 9
-3 3 52 5 121 5 70 0 127 4 127 9 0 15 -101 163 -161 237 -70 86 -146 139
-248 172 -67 22 -83 23 -137 14 -55 -9 -175 -53 -198 -73 -5 -5 -3 -15 5 -26
8 -9 -3 -5 -23 11 l-37 28 16 -32 c13 -27 13 -34 2 -41 -10 -6 -22 1 -42 26
-16 19 -36 35 -44 35 -8 0 -36 18 -61 40 -25 23 -52 38 -59 35 -14 -5 -61 20
-75 40 -5 6 -8 6 -8 0 0 -5 -7 1 -16 15 -11 19 -14 20 -10 5 5 -17 1 -20 -26
-20 -18 0 -33 -6 -36 -14 -4 -11 5 -13 47 -7 37 5 51 3 51 -6 0 -6 10 -22 22
-35 22 -24 13 -32 -12 -11 -13 12 17 -26 48 -60 10 -11 12 -11 13 0 0 7 5 1
11 -14 5 -16 14 -28 19 -28 4 0 6 -7 3 -15 -4 -8 -3 -23 1 -32 26 -60 24 -85
-8 -96 -35 -11 -180 1 -171 15 3 5 -3 12 -15 15 -12 3 -21 12 -21 19 0 18 -10
18 -24 -2 -15 -20 -13 135 2 163 6 11 9 32 6 49 -3 16 -7 50 -11 77 -3 26 -9
47 -14 47 -4 0 -10 8 -12 18 -3 9 -5 2 -6 -15 -1 -19 -6 -33 -14 -33 -15 0
-69 -56 -65 -67 2 -4 7 -7 11 -5 5 1 6 -2 3 -7 -9 -14 14 -25 46 -23 15 1 28
-1 28 -6 0 -4 -13 -7 -30 -6 l-29 2 16 -32 c26 -46 23 -150 -5 -202 -64 -123
-211 -167 -328 -99 -47 28 -103 105 -105 144 -1 16 -3 19 -6 9 -6 -24 -26 -28
-68 -14 l-38 13 2 94 c1 52 -3 100 -8 108 -12 19 99 199 166 268 45 47 55 53
80 48 21 -5 24 -4 13 4 -8 6 -23 11 -32 11 -10 0 -18 5 -18 10 0 6 -6 10 -12
8 -7 -1 -35 2 -61 6 -29 4 -53 3 -60 -3 -14 -11 -99 -22 -92 -11 10 16 -66 3
-87 -15 -17 -15 -19 -16 -9 -2 16 21 14 21 -38 2 -23 -8 -55 -13 -71 -11 -19
2 -35 -3 -46 -15 -9 -10 -22 -15 -29 -13 -7 3 -27 -1 -43 -10 -16 -8 -32 -13
-34 -10 -3 2 -10 -1 -15 -8 -7 -9 -7 -38 0 -86 10 -68 10 -75 -8 -85 -32 -18
-65 -59 -73 -91 -5 -20 -19 -37 -37 -46 -85 -44 -85 -44 -85 -136 l0 -83 73
-35 c83 -40 87 -47 147 -231 44 -137 105 -276 158 -360 63 -98 170 -231 197
-243 27 -12 75 -104 75 -143 0 -24 -18 -106 -36 -161 -5 -17 28 -18 690 -18
407 0 696 4 696 9 0 13 -57 31 -96 31 -18 0 -34 5 -36 10 -2 6 -38 12 -80 15
-97 6 -286 33 -313 44 -100 44 -161 81 -212 129 -66 63 -84 89 -102 145 -8 23
-19 37 -29 37 -9 0 -24 5 -32 10 -13 9 -13 11 0 20 8 5 21 8 28 5 9 -3 12 15
12 70 l0 75 -38 24 c-21 13 -76 43 -123 66 -46 23 -107 58 -135 76 -28 19 -62
34 -75 34 -13 0 -38 9 -55 19 -36 22 -130 129 -126 143 1 5 -1 7 -6 4 -10 -6
-75 58 -67 65 3 3 -7 16 -23 30 l-27 24 24 -27 c29 -33 21 -38 -9 -6 -22 23
-27 63 -9 73 6 4 26 -11 45 -34 20 -23 40 -41 46 -41 5 0 29 -16 52 -35 24
-19 48 -35 53 -35 6 0 31 -9 56 -20 31 -14 47 -28 51 -45 5 -18 13 -25 30 -25
13 0 26 -7 30 -15 4 -11 15 -14 41 -10 30 3 36 1 33 -13 -4 -24 10 -42 31 -42
10 0 24 -6 30 -14 7 -8 22 -17 34 -20 13 -3 41 -22 64 -43 23 -22 65 -46 97
-57 55 -19 73 -36 38 -36 -11 0 -27 -9 -37 -20 -15 -17 -17 -31 -11 -107 10
-135 28 -177 106 -254 74 -73 156 -119 257 -144 81 -21 305 -44 317 -33 10 8
-3 39 -69 158 -90 162 -116 212 -112 216 2 2 19 -26 38 -62 l34 -66 64 6 c80
8 118 30 127 70 3 17 11 37 16 43 7 9 6 13 -3 15 -43 4 -85 6 -184 8 -99 2
-107 4 -90 17 16 12 45 14 155 9 134 -5 162 -9 188 -29 10 -8 10 -12 1 -18 -8
-5 2 -28 34 -75 87 -131 189 -233 329 -328 l67 -46 386 0 385 0 0 910 c0 802
-2 910 -15 910 -8 0 -15 6 -15 14 0 8 -5 16 -10 18 -18 6 1 70 22 75 17 5 18
18 18 168 0 147 -2 166 -19 187 -11 12 -53 64 -94 113 -120 146 -235 243 -382
321 -116 62 -174 80 -326 99 -151 20 -280 16 -399 -10 -85 -19 -261 -13 -316
10 -18 7 -92 52 -166 98 -109 70 -144 87 -193 95 -79 14 -185 21 -210 16z
m147 -111 c63 -34 89 -83 95 -173 6 -92 -13 -126 -96 -167 -35 -18 -79 -33
-98 -33 -61 0 -153 52 -153 87 0 16 -1 16 39 2 44 -16 81 2 126 59 49 64 61
112 40 171 -27 78 -28 81 -15 81 7 0 35 -12 62 -27z m1168 -157 c105 -26 194
-66 203 -90 4 -10 -15 -24 -66 -49 -107 -52 -103 -51 -150 -8 -68 62 -120 84
-215 89 -77 4 -87 2 -147 -27 -44 -22 -80 -50 -111 -86 -46 -53 -48 -54 -74
-40 -24 12 -82 68 -147 141 -23 25 -29 44 -15 44 36 2 286 32 317 39 22 5 100
9 173 10 110 1 150 -3 232 -23z m-152 -188 c23 -11 54 -36 67 -56 21 -31 25
-48 25 -115 0 -63 -5 -89 -26 -133 -51 -108 -116 -145 -217 -125 -59 13 -137
61 -137 86 0 11 12 15 51 15 44 0 54 4 77 30 15 17 35 30 45 30 10 0 32 13 48
29 25 26 29 37 29 85 0 57 -27 133 -56 157 -43 35 16 34 94 -3z m-1502 -780
c5 4 1 -2 -8 -13 -9 -11 -53 -76 -98 -145 -44 -68 -83 -126 -85 -129 -9 -9
-46 33 -40 46 2 8 1 12 -4 9 -14 -9 -72 19 -63 30 5 5 13 21 20 36 17 40 -10
26 -34 -17 -10 -19 -20 -33 -22 -30 -5 4 12 36 55 104 27 41 37 51 44 40 7
-11 11 -12 17 -1 5 7 13 12 18 11 20 -4 76 15 81 27 3 8 10 14 16 14 5 0 3 -8
-5 -17 -30 -35 -31 -47 -2 -21 23 22 33 25 42 16 9 -9 12 -9 12 1 0 7 3 10 8
8 4 -3 13 1 20 9 12 13 8 18 -11 15 -5 -1 -6 3 -2 9 5 8 11 8 19 1 7 -6 17 -7
22 -3z m-415 -45 c-16 -29 -61 -88 -61 -79 0 9 59 96 66 96 3 0 0 -8 -5 -17z
m71 -72 c-31 -48 -59 -87 -61 -85 -2 2 7 19 19 39 18 29 20 38 9 51 -9 11 -9
18 -1 26 9 9 12 6 12 -12 l0 -25 25 30 c13 17 24 35 25 42 0 9 7 15 27 22 2 1
-23 -39 -55 -88z m-59 49 c-9 -17 -28 -43 -40 -58 l-23 -27 22 40 c21 40 47
75 55 75 2 0 -4 -14 -14 -30z m126 -2 c-5 -18 -19 -41 -31 -52 -13 -10 -22
-23 -20 -27 1 -5 -2 -9 -8 -9 -6 0 -9 -3 -9 -7 3 -21 -3 -31 -20 -36 -16 -4
-13 6 17 57 31 53 70 106 78 106 1 0 -2 -15 -7 -32z m-259 -8 c0 -5 -5 -10
-11 -10 -5 0 -7 5 -4 10 3 6 8 10 11 10 2 0 4 -4 4 -10z m1200 -305 c0 -5 -5
-3 -10 5 -5 8 -10 20 -10 25 0 6 5 3 10 -5 5 -8 10 -19 10 -25z m220 -105 c0
-5 -4 -10 -10 -10 -5 0 -10 5 -10 10 0 6 5 10 10 10 6 0 10 -4 10 -10z m48
-22 c-6 -18 -28 -21 -28 -4 0 9 7 16 16 16 9 0 14 -5 12 -12z m127 -58 c10
-11 16 -20 13 -20 -3 0 -13 9 -23 20 -10 11 -16 20 -13 20 3 0 13 -9 23 -20z
m-405 -85 c0 -14 5 -25 11 -25 5 0 7 -5 4 -11 -4 -6 -14 -8 -22 -5 -8 3 -11 1
-8 -4 11 -17 -7 -11 -21 8 -20 25 -17 42 7 42 11 0 17 5 14 10 -3 6 -1 10 4
10 6 0 11 -11 11 -25z m102 -12 c2 -16 8 -27 15 -26 7 2 10 -3 7 -11 -3 -8 -1
-17 5 -21 16 -9 13 -45 -3 -45 -8 0 -16 7 -20 15 -3 8 -11 15 -18 15 -7 0 -24
9 -38 20 -24 19 -25 19 -2 15 22 -4 27 6 23 48 -1 9 4 17 13 17 9 0 16 -11 18
-27z m-132 -64 c0 -5 -7 -6 -15 -3 -8 4 -15 13 -15 21 0 13 3 13 15 3 8 -7 15
-16 15 -21z m79 -6 c46 -32 49 -38 21 -53 -14 -8 -32 -8 -57 -1 -20 6 -40 8
-45 5 -14 -9 -9 25 8 51 20 31 25 31 73 -2z m776 -72 c42 -25 445 -410 445
-426 0 -21 -103 29 -219 107 -69 47 -196 145 -296 231 l-39 34 18 42 c11 22
24 41 30 41 6 0 34 -13 61 -29z m-1250 -459 c7 -19 -3 -29 -36 -37 -22 -5 -28
-2 -39 24 -7 17 -10 37 -6 46 5 13 9 13 40 -2 19 -9 38 -23 41 -31z"/>
<path d="M563 1628 c-6 -7 -16 -24 -22 -38 -12 -24 -12 -24 4 -5 20 24 37 55
32 55 -3 0 -9 -6 -14 -12z"/>
<path d="M870 1765 c-20 -25 21 -35 45 -11 12 12 11 14 -10 19 -14 2 -29 -1
-35 -8z"/>
<path d="M1024 1732 c4 -7 3 -19 -3 -26 -16 -19 42 -16 60 3 11 13 11 14 -5 8
-12 -5 -26 -1 -39 10 -11 10 -17 12 -13 5z"/>
<path d="M1257 1629 c7 -7 15 -10 18 -7 3 3 -2 9 -12 12 -14 6 -15 5 -6 -5z"/>
<path d="M893 1486 c-122 -39 -176 -158 -123 -274 34 -75 151 -113 237 -77 48
20 71 41 95 88 42 84 18 187 -58 239 -49 33 -97 40 -151 24z m-45 -134 c2 -13
-4 -25 -17 -31 -16 -9 -21 -7 -26 9 -7 23 11 53 29 47 6 -2 12 -13 14 -25z"/>
</g>
</svg>
